<?xml version="1.0" encoding="utf-8"?>
<!-- Generator: Adobe Illustrator 24.0.0, SVG Export Plug-In . SVG Version: 6.00 Build 0)  -->
<svg version="1.1" id="Livello_1" xmlns="http://www.w3.org/2000/svg" xmlns:xlink="http://www.w3.org/1999/xlink" x="0px" y="0px"
	 viewBox="0 0 50 50" style="enable-background:new 0 0 50 50;" xml:space="preserve">
<style type="text/css">
	.st0{fill:#fff;}
</style>
<g id="Livello_1_1_">
	<g>
		<path class="st0" d="M48.8,14.8c-0.1-2.3-0.4-4.1-1.1-5.8c-0.6-1.6-1.5-2.9-2.7-4.1s-2.5-2-4.1-2.7c-1.7-0.7-3.5-1-5.8-1.1
			C32.6,1,31.7,1,25,1s-7.6,0-10.2,0.2c-2.3,0.1-4.1,0.4-5.8,1.1C7.4,2.9,6.2,3.7,4.9,4.9c-1.2,1.2-2,2.5-2.7,4.1
			c-0.7,1.7-1,3.5-1.1,5.8C1,17.4,1,18.3,1,25c0,6.7,0,7.5,0.2,10.2c0.1,2.3,0.4,4.1,1.1,5.8c0.6,1.6,1.5,2.9,2.7,4.1
			c1.2,1.2,2.5,2,4.1,2.7c1.7,0.7,3.5,1,5.8,1.1C17.4,49,18.3,49,25,49c6.7,0,7.5,0,10.2-0.2c2.3-0.1,4.1-0.4,5.8-1.1
			c1.6-0.6,2.9-1.5,4.1-2.7s2.1-2.5,2.7-4.1c0.7-1.7,1-3.5,1.1-5.8C49,32.6,49,31.7,49,25C49,18.3,49,17.4,48.8,14.8z M46,35
			c-0.1,2.5-0.5,3.9-0.9,4.9c-0.5,1.3-1.1,2.2-2,3.1c-1,1-1.9,1.5-3.1,2C39,45.4,37.6,45.8,35,46c-2.6,0.1-3.4,0.1-10,0.1
			c-6.6,0-7.4,0-10.1-0.1c-2.5-0.1-3.9-0.6-4.9-0.9C8.8,44.6,7.9,44,7,43c-0.9-0.9-1.5-1.9-2-3.1C4.6,39,4.1,37.6,4,35
			c-0.1-2.6-0.1-3.4-0.1-10c0-6.6,0-7.4,0.1-10.1c0.1-2.5,0.6-3.9,0.9-4.9C5.4,8.8,6,7.9,7,7c0.9-1,1.9-1.5,3.1-2
			C11,4.6,12.4,4.1,14.9,4c2.6-0.1,3.4-0.1,10.1-0.1c6.6,0,7.4,0,10,0.1c2.5,0.1,3.9,0.5,4.9,0.9C41.2,5.4,42.1,6,43,7
			c0.9,0.9,1.5,1.9,2,3.1c0.4,0.9,0.8,2.3,0.9,4.9c0.1,2.6,0.1,3.4,0.1,10.1S46.1,32.4,46,35z"/>
		<path class="st0" d="M40.4,11.8c0,1.2-1,2.2-2.2,2.2c-1.2,0-2.2-1-2.2-2.2c0-1.2,1-2.2,2.2-2.2C39.4,9.6,40.4,10.6,40.4,11.8z"/>
		<path class="st0" d="M25,13.1c-6.6,0-11.9,5.4-11.9,11.9c0,6.6,5.3,11.9,11.9,11.9c6.6,0,11.9-5.4,11.9-11.9
			C36.9,18.4,31.6,13.1,25,13.1z M25,34.1c-5,0-9.1-4.1-9.1-9.1c0-5,4.1-9.1,9.1-9.1s9.1,4.1,9.1,9.1C34.1,30,30,34.1,25,34.1z"/>
	</g>
</g>
<g id="Livello_3">
</g>
</svg>
