<?xml version="1.0" encoding="utf-8"?>
<!-- Generator: Adobe Illustrator 24.0.0, SVG Export Plug-In . SVG Version: 6.00 Build 0)  -->
<svg version="1.1" id="Livello_1" xmlns="http://www.w3.org/2000/svg" xmlns:xlink="http://www.w3.org/1999/xlink" x="0px" y="0px"
	 viewBox="0 0 861.55 1080" style="enable-background:new 0 0 861.55 1080;" xml:space="preserve">
<style type="text/css">
	.st0{fill:#FFFFFF;}
</style>
<g>
	<path class="st0" d="M573.89,742.22c7.91,14.69,15.82,24.85,25.98,35.02l47.45,44.06v2.26h-239.5l-125.4-266.61
		c-4.52-10.17-12.43-13.56-20.33-13.56c-3.39,0-7.91,1.13-12.43,4.52v194.31c0,14.69,1.13,18.07,11.3,27.11l55.35,51.97v2.26H0
		v-2.26l55.36-51.97c9.04-9.04,10.17-12.43,10.17-27.11V111.84c0-14.69-1.13-19.21-10.17-28.24L0,31.63v-2.26L249.66,0v535.48
		l183.01-136.69c9.04-6.78,9.04-13.56,2.26-22.59l-76.82-109.58v-2.26H634.9v2.26L428.16,423.64c-9.04,6.78-10.17,10.17-5.65,20.34
		L573.89,742.22z"/>
	<path class="st0" d="M579.12,1080c-5.65,0-11.3,0-16.95-1.13v-2.26c77.95-15.82,114.1-94.9,114.1-231.59V351.34
		c0-14.69-1.13-18.07-10.17-28.24l-55.36-56.49v-2.26h250.79v517.41C861.55,971.55,759.88,1078.87,579.12,1080z"/>
</g>
</svg>
