<?xml version="1.0" encoding="utf-8"?>
<!-- Generator: Adobe Illustrator 24.0.0, SVG Export Plug-In . SVG Version: 6.00 Build 0)  -->
<svg version="1.1" id="Livello_1" xmlns="http://www.w3.org/2000/svg" xmlns:xlink="http://www.w3.org/1999/xlink" x="0px" y="0px"
	 viewBox="0 0 66.4 62" style="enable-background:new 0 0 66.4 62;" xml:space="preserve">
<style type="text/css">
	.st0{fill:#FFFFFF;}
</style>
<g id="Livello_2_1_">
</g>
<g id="Livello_3">
</g>
<g>
	<path class="st0" d="M1,61.1h12.9V18.1H1V61.1z M51.2,16.6c-6.3,0-11.8,2.3-15.8,7.3v-6H22.5v43.1h12.9V37.8
		c0-4.9,4.5-9.7,10.2-9.7s7,4.8,7,9.6v23.4h12.9V36.7C65.5,19.8,57.5,16.6,51.2,16.6z M7.4,13.8c3.6,0,6.5-2.9,6.5-6.5
		S11,0.9,7.4,0.9S0.9,3.8,0.9,7.4S3.8,13.8,7.4,13.8z"/>
</g>
</svg>
