<?xml version="1.0" encoding="utf-8"?>
<!-- Generator: Adobe Illustrator 24.0.0, SVG Export Plug-In . SVG Version: 6.00 Build 0)  -->
<svg version="1.1" xmlns="http://www.w3.org/2000/svg" xmlns:xlink="http://www.w3.org/1999/xlink" x="0px" y="0px"
	 viewBox="0 0 62 62" style="enable-background:new 0 0 62 62;" xml:space="preserve">
<style type="text/css">
	.st0{fill:#FFFFE8;}
	.st1{fill:#FFFFFF;stroke:#000000;stroke-miterlimit:10;}
	.st2{fill:none;stroke:#FFFFFF;stroke-width:2;stroke-miterlimit:10;}
	.st3{opacity:0.3;}
	.st4{fill:#FA8E67;}
	.st5{fill:#CFC7E2;}
	.st6{fill:#FAC291;}
	.st7{fill:#CFC6E2;}
	.st8{fill:#9F94B8;}
	.st9{fill:#E9F7BE;}
	.st10{fill:#FFFFFF;}
	.st11{fill:#FA8E66;}
	.st12{clip-path:url(#SVGID_8_);}
	.st13{fill:none;stroke:#9F94B8;stroke-miterlimit:10;}
	.st14{fill:none;stroke:#FFFFFF;stroke-miterlimit:10;}
</style>
<g id="Livello_1">
	<g>
		<path class="st10" d="M60.88,18.23c-0.13-2.88-0.55-5.11-1.37-7.22c-0.79-2.03-1.83-3.63-3.36-5.16
			c-1.53-1.53-3.12-2.56-5.16-3.35c-2.11-0.83-4.34-1.25-7.22-1.38c-3.3-0.15-4.39-0.19-12.76-0.19c-8.37,0-9.47,0.04-12.77,0.19
			c-2.88,0.13-5.11,0.55-7.22,1.38C8.98,3.29,7.39,4.33,5.85,5.85C4.32,7.4,3.29,8.98,2.51,11.02c-0.82,2.11-1.25,4.34-1.38,7.22
			c-0.15,3.3-0.19,4.39-0.19,12.77c0,8.37,0.04,9.46,0.19,12.76c0.13,2.88,0.56,5.11,1.38,7.22c0.79,2.03,1.82,3.63,3.35,5.16
			c1.54,1.53,3.13,2.56,5.16,3.35c2.11,0.83,4.34,1.25,7.22,1.38c3.3,0.15,4.39,0.19,12.77,0.19c8.37,0,9.46-0.04,12.76-0.19
			c2.88-0.13,5.11-0.55,7.22-1.38c2.04-0.79,3.63-1.82,5.16-3.35c1.53-1.53,2.57-3.12,3.36-5.16c0.82-2.11,1.24-4.34,1.37-7.22
			c0.15-3.3,0.19-4.39,0.19-12.76C61.07,22.62,61.02,21.53,60.88,18.23z M57.28,43.59c-0.14,3.17-0.68,4.92-1.14,6.09
			c-0.61,1.59-1.35,2.72-2.54,3.91c-1.2,1.2-2.33,1.93-3.92,2.55c-1.17,0.45-2.91,0.99-6.09,1.14c-3.28,0.15-4.27,0.18-12.59,0.18
			c-8.33,0-9.31-0.03-12.6-0.18c-3.17-0.15-4.92-0.69-6.09-1.14c-1.58-0.62-2.72-1.35-3.91-2.55c-1.19-1.19-1.93-2.32-2.55-3.91
			c-0.45-1.17-0.99-2.92-1.14-6.09c-0.15-3.29-0.18-4.28-0.18-12.59c0-8.32,0.03-9.31,0.18-12.6c0.15-3.17,0.69-4.92,1.14-6.09
			C6.47,10.72,7.21,9.59,8.4,8.4c1.19-1.2,2.33-1.93,3.91-2.55c1.17-0.46,2.92-0.99,6.09-1.14c3.3-0.15,4.28-0.18,12.6-0.18
			c8.31,0,9.3,0.03,12.59,0.18c3.18,0.15,4.92,0.68,6.09,1.14c1.59,0.62,2.72,1.35,3.92,2.55c1.19,1.19,1.93,2.32,2.54,3.91
			c0.46,1.17,1,2.92,1.14,6.09c0.15,3.29,0.18,4.27,0.18,12.6C57.46,39.33,57.43,40.32,57.28,43.59z"/>
		<path class="st10" d="M50.32,14.41c0,1.51-1.23,2.73-2.73,2.73c-1.51,0-2.73-1.22-2.73-2.73c0-1.5,1.22-2.72,2.73-2.72
			C49.08,11.7,50.32,12.91,50.32,14.41z"/>
		<path class="st10" d="M31.01,16.04c-8.25,0-14.95,6.71-14.95,14.96c0,8.24,6.7,14.95,14.95,14.95c8.24,0,14.95-6.71,14.95-14.95
			C45.95,22.76,39.24,16.04,31.01,16.04z M31.01,42.35c-6.26,0-11.36-5.09-11.36-11.35c0-6.27,5.1-11.36,11.36-11.36
			c6.26,0,11.35,5.09,11.35,11.36C42.35,37.27,37.26,42.35,31.01,42.35z"/>
	</g>
</g>
<g id="Livello_2">
</g>
<g id="Livello_3">
</g>
</svg>
